M48
; DRILL file {KiCad (5.1.8)-1} date 05/10/22 07:33:39
; FORMAT={-:-/ absolute / metric / decimal}
; #@! TF.CreationDate,2022-05-10T07:33:39+02:00
; #@! TF.GenerationSoftware,Kicad,Pcbnew,(5.1.8)-1
FMAT,2
METRIC
T1C0.700
T2C1.200
T3C3.000
%
G90
G05
T1
X25.4Y9.3
X35.43Y5.19
X37.97Y5.19
X43.16Y34.4
X43.16Y26.78
X45.7Y34.4
X45.7Y26.78
X53.0Y8.0
X51.6Y30.5
X51.6Y20.5
X53.0Y5.0
X18.5Y3.0
X28.5Y3.0
X53.0Y14.0
X22.4Y9.3
X25.6Y24.7
X25.6Y14.7
X32.89Y12.81
X32.89Y5.19
X35.43Y12.81
X37.97Y12.81
X40.51Y12.81
X40.51Y5.19
X53.0Y11.0
T2
X7.2Y32.4
X7.2Y27.32
X7.2Y22.24
X7.2Y17.16
X7.2Y12.08
X17.24Y37.3
X17.24Y19.926
X57.1Y37.3
X57.1Y19.926
T3
X2.2Y39.4
X2.2Y2.9
X70.5Y39.4
X70.5Y2.9
T0
M30
