%TF.GenerationSoftware,KiCad,Pcbnew,(5.1.8)-1*%
%TF.CreationDate,2022-05-10T07:33:37+02:00*%
%TF.ProjectId,Compteur_Frost_Attiny,436f6d70-7465-4757-925f-46726f73745f,rev?*%
%TF.SameCoordinates,PX6146580PY6146580*%
%TF.FileFunction,Copper,L2,Bot*%
%TF.FilePolarity,Positive*%
%FSLAX46Y46*%
G04 Gerber Fmt 4.6, Leading zero omitted, Abs format (unit mm)*
G04 Created by KiCad (PCBNEW (5.1.8)-1) date 2022-05-10 07:33:37*
%MOMM*%
%LPD*%
G01*
G04 APERTURE LIST*
%TA.AperFunction,NonConductor*%
%ADD10C,0.300000*%
%TD*%
%TA.AperFunction,NonConductor*%
%ADD11C,0.100000*%
%TD*%
%TA.AperFunction,ComponentPad*%
%ADD12R,2.000000X2.000000*%
%TD*%
%TA.AperFunction,ComponentPad*%
%ADD13C,2.000000*%
%TD*%
%TA.AperFunction,WasherPad*%
%ADD14C,3.100000*%
%TD*%
%TA.AperFunction,ComponentPad*%
%ADD15O,2.000000X3.000000*%
%TD*%
%TA.AperFunction,ComponentPad*%
%ADD16C,2.300000*%
%TD*%
%TA.AperFunction,ComponentPad*%
%ADD17C,2.200000*%
%TD*%
%TA.AperFunction,ComponentPad*%
%ADD18C,3.000000*%
%TD*%
%TA.AperFunction,ComponentPad*%
%ADD19R,3.000000X3.000000*%
%TD*%
%TA.AperFunction,Conductor*%
%ADD20C,0.800000*%
%TD*%
%TA.AperFunction,Conductor*%
%ADD21C,1.000000*%
%TD*%
G04 APERTURE END LIST*
D10*
X11900000Y37150000D02*
X11971428Y37221429D01*
X12114285Y37435715D01*
X12185714Y37578572D01*
X12257142Y37792858D01*
X12328571Y38150000D01*
X12328571Y38435715D01*
X12257142Y38792858D01*
X12185714Y39007143D01*
X12114285Y39150000D01*
X11971428Y39364286D01*
X11900000Y39435715D01*
X10685714Y37721429D02*
X10685714Y38507143D01*
X10757142Y38650000D01*
X10900000Y38721429D01*
X11185714Y38721429D01*
X11328571Y38650000D01*
X10685714Y37792858D02*
X10828571Y37721429D01*
X11185714Y37721429D01*
X11328571Y37792858D01*
X11400000Y37935715D01*
X11400000Y38078572D01*
X11328571Y38221429D01*
X11185714Y38292858D01*
X10828571Y38292858D01*
X10685714Y38364286D01*
X9971428Y37864286D02*
X9900000Y37792858D01*
X9971428Y37721429D01*
X10042857Y37792858D01*
X9971428Y37864286D01*
X9971428Y37721429D01*
X8614285Y37721429D02*
X8614285Y39221429D01*
X8614285Y37792858D02*
X8757142Y37721429D01*
X9042857Y37721429D01*
X9185714Y37792858D01*
X9257142Y37864286D01*
X9328571Y38007143D01*
X9328571Y38435715D01*
X9257142Y38578572D01*
X9185714Y38650000D01*
X9042857Y38721429D01*
X8757142Y38721429D01*
X8614285Y38650000D01*
X8042857Y37150000D02*
X7971428Y37221429D01*
X7828571Y37435715D01*
X7757142Y37578572D01*
X7685714Y37792858D01*
X7614285Y38150000D01*
X7614285Y38435715D01*
X7685714Y38792858D01*
X7757142Y39007143D01*
X7828571Y39150000D01*
X7971428Y39364286D01*
X8042857Y39435715D01*
X6971428Y39578572D02*
X6828571Y39650000D01*
X6614285Y39650000D01*
X6471428Y39578572D01*
X6400000Y39435715D01*
X6400000Y39292858D01*
X6471428Y39150000D01*
X6971428Y38650000D01*
X6400000Y38650000D01*
D11*
X15400000Y5742858D02*
X15447619Y5695239D01*
X15590476Y5647620D01*
X15685714Y5647620D01*
X15828571Y5695239D01*
X15923809Y5790477D01*
X15971428Y5885715D01*
X16019047Y6076191D01*
X16019047Y6219048D01*
X15971428Y6409524D01*
X15923809Y6504762D01*
X15828571Y6600000D01*
X15685714Y6647620D01*
X15590476Y6647620D01*
X15447619Y6600000D01*
X15400000Y6552381D01*
X14828571Y5647620D02*
X14923809Y5695239D01*
X14971428Y5742858D01*
X15019047Y5838096D01*
X15019047Y6123810D01*
X14971428Y6219048D01*
X14923809Y6266667D01*
X14828571Y6314286D01*
X14685714Y6314286D01*
X14590476Y6266667D01*
X14542857Y6219048D01*
X14495238Y6123810D01*
X14495238Y5838096D01*
X14542857Y5742858D01*
X14590476Y5695239D01*
X14685714Y5647620D01*
X14828571Y5647620D01*
X14066666Y5647620D02*
X14066666Y6314286D01*
X14066666Y6219048D02*
X14019047Y6266667D01*
X13923809Y6314286D01*
X13780952Y6314286D01*
X13685714Y6266667D01*
X13638095Y6171429D01*
X13638095Y5647620D01*
X13638095Y6171429D02*
X13590476Y6266667D01*
X13495238Y6314286D01*
X13352380Y6314286D01*
X13257142Y6266667D01*
X13209523Y6171429D01*
X13209523Y5647620D01*
X12733333Y6314286D02*
X12733333Y5314286D01*
X12733333Y6266667D02*
X12638095Y6314286D01*
X12447619Y6314286D01*
X12352380Y6266667D01*
X12304761Y6219048D01*
X12257142Y6123810D01*
X12257142Y5838096D01*
X12304761Y5742858D01*
X12352380Y5695239D01*
X12447619Y5647620D01*
X12638095Y5647620D01*
X12733333Y5695239D01*
X11971428Y6314286D02*
X11590476Y6314286D01*
X11828571Y6647620D02*
X11828571Y5790477D01*
X11780952Y5695239D01*
X11685714Y5647620D01*
X11590476Y5647620D01*
X10876190Y5695239D02*
X10971428Y5647620D01*
X11161904Y5647620D01*
X11257142Y5695239D01*
X11304761Y5790477D01*
X11304761Y6171429D01*
X11257142Y6266667D01*
X11161904Y6314286D01*
X10971428Y6314286D01*
X10876190Y6266667D01*
X10828571Y6171429D01*
X10828571Y6076191D01*
X11304761Y5980953D01*
X9971428Y6314286D02*
X9971428Y5647620D01*
X10400000Y6314286D02*
X10400000Y5790477D01*
X10352380Y5695239D01*
X10257142Y5647620D01*
X10114285Y5647620D01*
X10019047Y5695239D01*
X9971428Y5742858D01*
X9495238Y5647620D02*
X9495238Y6314286D01*
X9495238Y6123810D02*
X9447619Y6219048D01*
X9400000Y6266667D01*
X9304761Y6314286D01*
X9209523Y6314286D01*
X7780952Y6171429D02*
X8114285Y6171429D01*
X8114285Y5647620D02*
X8114285Y6647620D01*
X7638095Y6647620D01*
X7257142Y5647620D02*
X7257142Y6314286D01*
X7257142Y6123810D02*
X7209523Y6219048D01*
X7161904Y6266667D01*
X7066666Y6314286D01*
X6971428Y6314286D01*
X6495238Y5647620D02*
X6590476Y5695239D01*
X6638095Y5742858D01*
X6685714Y5838096D01*
X6685714Y6123810D01*
X6638095Y6219048D01*
X6590476Y6266667D01*
X6495238Y6314286D01*
X6352380Y6314286D01*
X6257142Y6266667D01*
X6209523Y6219048D01*
X6161904Y6123810D01*
X6161904Y5838096D01*
X6209523Y5742858D01*
X6257142Y5695239D01*
X6352380Y5647620D01*
X6495238Y5647620D01*
X5780952Y5695239D02*
X5685714Y5647620D01*
X5495238Y5647620D01*
X5400000Y5695239D01*
X5352380Y5790477D01*
X5352380Y5838096D01*
X5400000Y5933334D01*
X5495238Y5980953D01*
X5638095Y5980953D01*
X5733333Y6028572D01*
X5780952Y6123810D01*
X5780952Y6171429D01*
X5733333Y6266667D01*
X5638095Y6314286D01*
X5495238Y6314286D01*
X5400000Y6266667D01*
X5066666Y6314286D02*
X4685714Y6314286D01*
X4923809Y6647620D02*
X4923809Y5790477D01*
X4876190Y5695239D01*
X4780952Y5647620D01*
X4685714Y5647620D01*
D12*
%TO.P,D1,2*%
%TO.N,Net-(D1-Pad2)*%
X22400000Y9300000D03*
D13*
%TO.P,D1,1*%
%TO.N,GND*%
X25400000Y9300000D03*
%TD*%
D14*
%TO.P,E1,*%
%TO.N,*%
X70500000Y2900000D03*
X2200000Y2900000D03*
X2200000Y39400000D03*
X70500000Y39400000D03*
%TD*%
D15*
%TO.P,U103,1*%
%TO.N,N/C*%
X40510000Y12810000D03*
%TO.P,U103,2*%
%TO.N,TX*%
X37970000Y12810000D03*
%TO.P,U103,3*%
%TO.N,RX*%
X35430000Y12810000D03*
%TO.P,U103,4*%
%TO.N,GND*%
X32890000Y12810000D03*
%TO.P,U103,5*%
%TO.N,N/C*%
X32890000Y5190000D03*
%TO.P,U103,6*%
%TO.N,Net-(R2-Pad1)*%
X35430000Y5190000D03*
%TO.P,U103,7*%
%TO.N,N/C*%
X37970000Y5190000D03*
%TO.P,U103,8*%
%TO.N,+5V*%
X40510000Y5190000D03*
%TD*%
D16*
%TO.P,R3,1*%
%TO.N,Net-(R2-Pad1)*%
X28500000Y3000000D03*
%TO.P,R3,2*%
%TO.N,Net-(D1-Pad2)*%
X18500000Y3000000D03*
%TD*%
D17*
%TO.P,P104,1*%
%TO.N,+5V*%
X53000000Y5000000D03*
%TD*%
%TO.P,P102,1*%
%TO.N,RX*%
X53000000Y8000000D03*
%TD*%
%TO.P,P101,1*%
%TO.N,GND*%
X53000000Y14000000D03*
%TD*%
%TO.P,P103,1*%
%TO.N,TX*%
X53000000Y11000000D03*
%TD*%
D18*
%TO.P,J101,5*%
%TO.N,Net-(J101-Pad5)*%
X7200000Y12080000D03*
%TO.P,J101,4*%
%TO.N,GND*%
X7200000Y17160000D03*
%TO.P,J101,3*%
%TO.N,+24V*%
X7200000Y22240000D03*
%TO.P,J101,2*%
%TO.N,GND*%
X7200000Y27320000D03*
D19*
%TO.P,J101,1*%
%TO.N,+24V*%
X7200000Y32400000D03*
%TD*%
D18*
%TO.P,U101,2*%
%TO.N,GND*%
X17240000Y19926000D03*
%TO.P,U101,1*%
%TO.N,+24V*%
X17240000Y37300000D03*
%TO.P,U101,4*%
%TO.N,GND*%
X57100000Y19926000D03*
%TO.P,U101,3*%
%TO.N,+5V*%
X57100000Y37300000D03*
%TD*%
D16*
%TO.P,R2,1*%
%TO.N,Net-(R2-Pad1)*%
X51600000Y30500000D03*
%TO.P,R2,2*%
%TO.N,GND*%
X51600000Y20500000D03*
%TD*%
%TO.P,R101,2*%
%TO.N,Net-(J101-Pad5)*%
X25600000Y14700000D03*
%TO.P,R101,1*%
%TO.N,Net-(R101-Pad1)*%
X25600000Y24700000D03*
%TD*%
D12*
%TO.P,U102,1*%
%TO.N,Net-(R101-Pad1)*%
X45700000Y34400000D03*
D13*
%TO.P,U102,3*%
%TO.N,Net-(R2-Pad1)*%
X43160000Y26780000D03*
%TO.P,U102,2*%
%TO.N,GND*%
X43160000Y34400000D03*
%TO.P,U102,4*%
%TO.N,+5V*%
X45700000Y26780000D03*
%TD*%
D20*
%TO.N,*%
X32900000Y5180000D02*
X32890000Y5190000D01*
D21*
%TO.N,+24V*%
X7200000Y32400000D02*
X3400000Y32400000D01*
X3400000Y32400000D02*
X3300000Y32300000D01*
X3300000Y32300000D02*
X3300000Y22100000D01*
X7060000Y22100000D02*
X7200000Y22240000D01*
X3300000Y22100000D02*
X7060000Y22100000D01*
X7200000Y32400000D02*
X17200000Y32400000D01*
X17200000Y37260000D02*
X17240000Y37300000D01*
X17200000Y32400000D02*
X17200000Y37260000D01*
%TO.N,GND*%
X43100000Y34340000D02*
X43160000Y34400000D01*
X17200000Y19886000D02*
X17240000Y19926000D01*
X57100000Y16900000D02*
X57100000Y19926000D01*
X54300000Y16900000D02*
X57100000Y16900000D01*
X51600000Y17100000D02*
X51400000Y16900000D01*
X51600000Y20500000D02*
X51600000Y17100000D01*
X33100000Y16900000D02*
X38800000Y16900000D01*
X38800000Y16900000D02*
X38500000Y17200000D01*
X32890000Y12810000D02*
X32890000Y16690000D01*
X32890000Y19710000D02*
X32890000Y16690000D01*
X32674000Y19926000D02*
X32890000Y19710000D01*
X7140000Y17100000D02*
X7200000Y17160000D01*
X21826000Y19926000D02*
X32674000Y19926000D01*
X17240000Y19926000D02*
X21826000Y19926000D01*
X43160000Y34400000D02*
X38600000Y34400000D01*
X38500000Y34300000D02*
X38500000Y32900000D01*
X38600000Y34400000D02*
X38500000Y34300000D01*
X38500000Y32900000D02*
X38500000Y33200000D01*
X38500000Y17200000D02*
X38500000Y32900000D01*
X53000000Y14000000D02*
X53000000Y16600000D01*
X53300000Y16900000D02*
X54300000Y16900000D01*
X53000000Y16600000D02*
X53300000Y16900000D01*
X51400000Y16900000D02*
X53300000Y16900000D01*
X7200000Y17160000D02*
X12460000Y17160000D01*
X17114000Y19800000D02*
X17240000Y19926000D01*
X12460000Y27080000D02*
X12220000Y27320000D01*
X7200000Y27320000D02*
X12220000Y27320000D01*
X12826000Y19926000D02*
X12460000Y19560000D01*
X17240000Y19926000D02*
X12826000Y19926000D01*
X12460000Y19560000D02*
X12460000Y27080000D01*
X12460000Y17160000D02*
X12460000Y19560000D01*
X32900000Y12800000D02*
X32890000Y12810000D01*
X25200000Y9400000D02*
X32900000Y9400000D01*
X32890000Y9410000D02*
X32890000Y12810000D01*
X46800000Y16900000D02*
X51400000Y16900000D01*
X38800000Y16900000D02*
X46800000Y16900000D01*
%TO.N,+5V*%
X57180000Y37220000D02*
X57100000Y37300000D01*
X40700000Y5000000D02*
X40510000Y5190000D01*
X60400000Y5000000D02*
X53000000Y5000000D01*
X61900000Y6500000D02*
X60400000Y5000000D01*
X61900000Y26600000D02*
X61900000Y6500000D01*
X61720000Y26780000D02*
X61900000Y26600000D01*
X57100000Y26860000D02*
X57180000Y26780000D01*
X57100000Y37300000D02*
X57100000Y26860000D01*
X57180000Y26780000D02*
X61720000Y26780000D01*
X45700000Y26780000D02*
X57180000Y26780000D01*
X47500000Y5000000D02*
X40700000Y5000000D01*
X53000000Y5000000D02*
X47500000Y5000000D01*
D20*
%TO.N,RX*%
X35430000Y10510000D02*
X35430000Y12810000D01*
X37940000Y8000000D02*
X35430000Y10510000D01*
X37940000Y8000000D02*
X53000000Y8000000D01*
%TO.N,TX*%
X53000000Y11000000D02*
X51900001Y9900001D01*
X37970000Y10230000D02*
X37970000Y12810000D01*
X38400000Y9800000D02*
X37970000Y10230000D01*
X51900000Y9800000D02*
X38400000Y9800000D01*
%TO.N,Net-(R101-Pad1)*%
X25600000Y37000000D02*
X45700000Y37000000D01*
X45700000Y37000000D02*
X45700000Y34400000D01*
X25600000Y24700000D02*
X25600000Y37000000D01*
%TO.N,Net-(R2-Pad1)*%
X43160000Y27460000D02*
X43200000Y27500000D01*
X51600000Y30500000D02*
X49000000Y30500000D01*
X35400000Y5160000D02*
X35430000Y5190000D01*
X63300000Y2800000D02*
X35400000Y2800000D01*
X65500000Y5000000D02*
X63300000Y2800000D01*
X65500000Y37300000D02*
X65500000Y5000000D01*
X63100000Y39700000D02*
X65500000Y37300000D01*
X48900000Y37800000D02*
X50800000Y39700000D01*
X35400000Y2800000D02*
X35400000Y5160000D01*
X50800000Y39700000D02*
X63100000Y39700000D01*
X48900000Y30600000D02*
X48900000Y37800000D01*
X49000000Y30500000D02*
X48900000Y30600000D01*
X43200000Y30500000D02*
X45000000Y30500000D01*
X43200000Y26820000D02*
X43200000Y30500000D01*
X45000000Y30500000D02*
X49000000Y30500000D01*
X43160000Y26780000D02*
X43200000Y26820000D01*
X44200000Y30500000D02*
X45000000Y30500000D01*
X28700000Y2800000D02*
X28500000Y3000000D01*
X35400000Y2800000D02*
X28700000Y2800000D01*
%TO.N,Net-(J101-Pad5)*%
X25580000Y14680000D02*
X25600000Y14700000D01*
X25600000Y14700000D02*
X14600000Y14700000D01*
X14600000Y14700000D02*
X14100000Y14200000D01*
X14100000Y14200000D02*
X14100000Y12100000D01*
X7220000Y12100000D02*
X7200000Y12080000D01*
X14100000Y12100000D02*
X7220000Y12100000D01*
%TO.N,Net-(D1-Pad2)*%
X22200000Y9400000D02*
X22200000Y3000000D01*
X22200000Y3000000D02*
X18500000Y3000000D01*
%TD*%
M02*
